<svg width="22" height="22" viewBox="0 0 22 22" fill="none" xmlns="http://www.w3.org/2000/svg">
<path d="M0 3.65186V19.1986H9.61078C9.71584 19.1986 9.77273 19.267 9.79228 19.2965L10.2229 19.7987L11.7775 19.7986L12.2079 19.2963C12.2274 19.267 12.2843 19.1986 12.3893 19.1986H22V3.65186H0Z" fill="#FF7226"/>
<path d="M9.61071 2.20129H1.45056V17.748H9.61071C10.1904 17.748 10.7013 18.044 11 18.4931L11.967 10.7201L11 2.94706C10.7013 2.49765 10.1907 2.20129 9.61071 2.20129Z" fill="#F7EBD4"/>
<path d="M12.3893 2.20129C11.8093 2.20129 11.2986 2.49765 11 2.94702V18.493C11.2987 18.0439 11.8095 17.748 12.3893 17.748H20.5495V2.20129H12.3893Z" fill="#D2F0E7"/>
<path d="M9.06596 4.49796H3.38463C3.18431 4.49796 3.02197 4.33558 3.02197 4.1353C3.02197 3.93502 3.18431 3.77264 3.38463 3.77264H9.06596C9.26628 3.77264 9.42861 3.93502 9.42861 4.1353C9.42861 4.33558 9.26628 4.49796 9.06596 4.49796Z" fill="#127C8D"/>
<path d="M9.06596 5.94852H3.38463C3.18431 5.94852 3.02197 5.78614 3.02197 5.58586C3.02197 5.38558 3.18431 5.22321 3.38463 5.22321H9.06596C9.26628 5.22321 9.42861 5.38558 9.42861 5.58586C9.42861 5.78614 9.26628 5.94852 9.06596 5.94852Z" fill="#127C8D"/>
<path d="M9.06596 7.39908H3.38463C3.18431 7.39908 3.02197 7.2367 3.02197 7.03642C3.02197 6.83615 3.18431 6.67377 3.38463 6.67377H9.06596C9.26628 6.67377 9.42861 6.83615 9.42861 7.03642C9.42861 7.2367 9.26628 7.39908 9.06596 7.39908Z" fill="#127C8D"/>
<path d="M9.06596 8.84964H3.38463C3.18431 8.84964 3.02197 8.68726 3.02197 8.48698C3.02197 8.28671 3.18431 8.12433 3.38463 8.12433H9.06596C9.26628 8.12433 9.42861 8.28671 9.42861 8.48698C9.42861 8.68726 9.26628 8.84964 9.06596 8.84964Z" fill="#127C8D"/>
<path d="M9.06596 10.3001H3.38463C3.18431 10.3001 3.02197 10.1378 3.02197 9.93749C3.02197 9.73721 3.18431 9.57483 3.38463 9.57483H9.06596C9.26628 9.57483 9.42861 9.73721 9.42861 9.93749C9.42861 10.1378 9.26628 10.3001 9.06596 10.3001Z" fill="#127C8D"/>
<path d="M6.22529 11.7508H3.38463C3.18431 11.7508 3.02197 11.5884 3.02197 11.3881C3.02197 11.1878 3.18431 11.0255 3.38463 11.0255H6.22529C6.42561 11.0255 6.58795 11.1878 6.58795 11.3881C6.58795 11.5884 6.42561 11.7508 6.22529 11.7508Z" fill="#127C8D"/>
<path d="M9.06597 12.8388H3.38464V15.8139H9.06597V12.8388Z" fill="#F99FB6"/>
<path d="M18.6154 10.3744H12.9341C12.7337 10.3744 12.5714 10.212 12.5714 10.0118C12.5714 9.81149 12.7337 9.64911 12.9341 9.64911H18.6154C18.8157 9.64911 18.9781 9.81149 18.9781 10.0118C18.9781 10.212 18.8157 10.3744 18.6154 10.3744Z" fill="#127C8D"/>
<path d="M18.6154 11.8249H12.9341C12.7337 11.8249 12.5714 11.6625 12.5714 11.4623C12.5714 11.262 12.7337 11.0996 12.9341 11.0996H18.6154C18.8157 11.0996 18.9781 11.262 18.9781 11.4623C18.978 11.6625 18.8157 11.8249 18.6154 11.8249Z" fill="#127C8D"/>
<path d="M18.6154 13.2755H12.9341C12.7337 13.2755 12.5714 13.1131 12.5714 12.9128C12.5714 12.7125 12.7337 12.5502 12.9341 12.5502H18.6154C18.8157 12.5502 18.9781 12.7125 18.9781 12.9128C18.9781 13.1131 18.8157 13.2755 18.6154 13.2755Z" fill="#127C8D"/>
<path d="M18.6154 14.726H12.9341C12.7337 14.726 12.5714 14.5637 12.5714 14.3634C12.5714 14.1631 12.7337 14.0007 12.9341 14.0007H18.6154C18.8157 14.0007 18.9781 14.1631 18.9781 14.3634C18.9781 14.5637 18.8157 14.726 18.6154 14.726Z" fill="#127C8D"/>
<path d="M15.7747 16.1766H12.9341C12.7337 16.1766 12.5714 16.0142 12.5714 15.814C12.5714 15.6137 12.7337 15.4513 12.9341 15.4513H15.7747C15.9751 15.4513 16.1374 15.6137 16.1374 15.814C16.1374 16.0142 15.9751 16.1766 15.7747 16.1766Z" fill="#127C8D"/>
<path d="M18.6154 8.19855C18.3085 8.19855 18.0403 8.13866 17.7995 8.03171V4.6648C18.0403 4.55786 18.3085 4.49796 18.6154 4.49796C18.8157 4.49796 18.9781 4.33558 18.9781 4.1353C18.9781 3.93502 18.8157 3.77264 18.6154 3.77264C17.2212 3.77264 16.4261 4.71082 15.7747 5.68385C15.1235 4.71087 14.3283 3.77264 12.9341 3.77264C12.7337 3.77264 12.5714 3.93502 12.5714 4.1353C12.5714 4.33558 12.7337 4.49796 12.9341 4.49796C13.241 4.49796 13.5092 4.55786 13.75 4.6648V8.03166C13.5092 8.13861 13.241 8.19851 12.9341 8.19851C12.7337 8.19851 12.5714 8.36089 12.5714 8.56117C12.5714 8.76145 12.7337 8.92382 12.9341 8.92382C14.3283 8.92382 15.1234 7.98564 15.7747 7.01262C16.426 7.9856 17.2212 8.92382 18.6154 8.92382C18.8157 8.92382 18.9781 8.76145 18.9781 8.56117C18.978 8.36089 18.8157 8.19855 18.6154 8.19855ZM14.4753 7.50865V5.18782C14.7875 5.50652 15.0611 5.91103 15.3435 6.34819C15.0611 6.78544 14.7875 7.18999 14.4753 7.50865ZM16.2059 6.34823C16.4884 5.91103 16.762 5.50648 17.0742 5.18786V7.50869C16.762 7.18999 16.4883 6.78544 16.2059 6.34823Z" fill="#127C8D"/>
</svg>
