<svg width="38" height="38" viewBox="0 0 38 38" fill="none" xmlns="http://www.w3.org/2000/svg">
<circle cx="19" cy="19" r="19" fill="#7EAAC3"/>
<g clip-path="url(#clip0_61_611)">
<path d="M17.6362 16.2833L12.0795 12.0793L11.0649 14.4466L14.6038 17.9855L17.6362 16.2833Z" fill="#FB992D"/>
<path d="M26.5321 26.5319L29.3238 28.6473L27.8281 29.4667L25.5176 28.8992L26.5321 26.5319Z" fill="#FFD488"/>
<path d="M28.899 25.5174L29.4665 27.8279L28.9853 28.9855L26.5317 26.5319L28.899 25.5174Z" fill="#FFEAC3"/>
<path d="M20.6909 19.3383L19 22.3819L25.5174 28.8993L27.2082 27.2083L20.6909 19.3383Z" fill="#FB992D"/>
<path d="M8.69748 12.0793L10.0502 13.4321L13.0938 11.7412L8.69748 8.69751C7.76751 9.62754 7.76751 11.1493 8.69748 12.0793Z" fill="#FA6121"/>
<path d="M12.0791 8.69748L13.4318 10.0502L12.4173 12.4175L8.69727 8.69748C9.62729 7.76751 11.1491 7.76751 12.0791 8.69748Z" fill="#FB7B46"/>
<path d="M12.0791 12.0794L27.2081 27.2083L28.899 25.5174L14.4463 11.0648L12.0791 12.0794Z" fill="#FFB739"/>
<path d="M11.0649 14.4466L12.7558 12.7557L12.5867 11.9102L11.7412 11.7411L10.0503 13.432L11.0649 14.4466Z" fill="#FFD488"/>
<path d="M13.4321 10.0503L11.7412 11.7411L12.7557 12.7557L14.4466 11.0648L13.4321 10.0503Z" fill="#FFEAC3"/>
<path d="M28.6475 28.6473L29.6621 28.9855L30.0002 30L27.8281 29.4667L28.6475 28.6473Z" fill="#233145"/>
<path d="M29.4669 27.8279L30.0002 30L28.6475 28.6473L29.4669 27.8279Z" fill="#466289"/>
<path d="M12.4825 28.8994L8 30L10.7916 26.5321L12.4825 28.8994Z" fill="#BEC8D6"/>
<path d="M9.10067 25.5176L8 30L11.1297 26.8703L9.10067 25.5176Z" fill="#DAE0E7"/>
<path d="M25.3333 16.0485L12.4824 28.8994L10.7915 27.2085L23.6424 13.0049L25.3333 16.0485Z" fill="#233145"/>
<path d="M29.9999 9.35223L28.6477 8L25.6714 10.9757L27.0241 12.3285L29.9999 9.35223Z" fill="#BEC8D6"/>
<path d="M28.7153 12.6667L26.3481 15.034L23.6426 13.0048L27.0244 10.9758L28.7153 12.6667Z" fill="#466289"/>
<path d="M24.3187 13.6812L10.7915 27.2085L9.10059 25.5176L21.9515 12.6667L24.3187 13.6812Z" fill="#466289"/>
<path d="M27.0245 10.9758L23.9809 14.0194L22.9663 11.6521L25.3336 9.28485L27.0245 10.9758Z" fill="#6B81A1"/>
<path d="M25.3335 16.0485L23.6426 14.3576L23.8117 13.5121L24.6572 13.343L26.3481 15.034L25.3335 16.0485Z" fill="#BEC8D6"/>
<path d="M24.6568 13.343L21.9516 10.6378L14.6035 17.9854L15.6181 19L21.9514 12.6666L23.6423 14.3575L24.6568 13.343Z" fill="#DAE0E7"/>
</g>
<defs>
<clipPath id="clip0_61_611">
<rect width="22" height="22" fill="white" transform="translate(8 8)"/>
</clipPath>
</defs>
</svg>
