<svg width="22" height="22" viewBox="0 0 22 22" fill="none" xmlns="http://www.w3.org/2000/svg">
<g clip-path="url(#clip0_62_97)">
<path d="M20.6587 1.85296C19.8508 1.04506 18.7766 0.600098 17.634 0.600098C16.4915 0.600098 15.4174 1.04506 14.6095 1.85296L1.13105 15.3313C-0.255271 16.7176 -0.255271 18.9734 1.13105 20.3597C1.82426 21.0529 2.73476 21.3994 3.64522 21.3994C4.55572 21.3994 5.46628 21.0529 6.15944 20.3597L18.05 8.46924C19.1339 7.38518 19.1339 5.62133 18.0499 4.53726C17.5248 4.0121 16.8266 3.72295 16.0839 3.72295C15.3412 3.72295 14.643 4.01215 14.1179 4.53726L6.63204 12.0232L7.16137 12.5525L14.6473 5.0666C15.0311 4.68286 15.5412 4.4715 16.0839 4.4715C16.6266 4.4715 17.1369 4.68286 17.5206 5.0666C18.3128 5.85878 18.3128 7.14778 17.5206 7.93996L5.63016 19.8304C4.53567 20.9248 2.75487 20.9249 1.66038 19.8304C0.565837 18.7359 0.565837 16.9551 1.66038 15.8606L15.1388 2.38224C15.8053 1.71571 16.6914 1.34865 17.634 1.34865C18.5766 1.34865 19.4628 1.71571 20.1293 2.38224C21.5052 3.75813 21.5052 5.99694 20.1293 7.37283L11.0555 16.4467L11.5848 16.9759L20.6587 7.90211C22.3264 6.23439 22.3264 3.52073 20.6587 1.85296Z" fill="#227AAC"/>
</g>
<defs>
<clipPath id="clip0_62_97">
<rect width="21.8182" height="21.8182" fill="white" transform="translate(0.0913086 0.0908203)"/>
</clipPath>
</defs>
</svg>
