<svg width="25" height="23" viewBox="0 0 25 23" fill="none" xmlns="http://www.w3.org/2000/svg">
<path d="M1.00247 0.921716C3.27405 0.362801 5.69272 0.442882 7.92288 1.16141V1.16196L1.2636 7.2885H1.263C0.481996 5.23675 0.39495 3.01158 1.00247 0.921716Z" fill="#B14B13"/>
<path d="M12.4823 18.0178L6.39394 13.2052V13.2046L4.03831 11.3428C2.75184 10.1593 1.82676 8.76918 1.26306 7.2885H1.26366L7.92294 1.16196V1.16141C9.53238 1.68001 11.0434 2.53108 12.3298 3.71464L14.3535 5.88182L19.5846 11.4837L17.8095 13.1168L16.0338 14.7505L14.2581 16.3841L12.4823 18.0178ZM11.6101 6.64619C10.3992 5.53167 8.43501 5.53167 7.22418 6.64619C6.01274 7.76015 6.01274 9.56724 7.22418 10.6812C8.43501 11.7957 10.3992 11.7957 11.6101 10.6812C12.8215 9.56724 12.8215 7.76015 11.6101 6.64619Z" fill="#EDB244"/>
<path d="M14.3534 5.88181C17.0908 5.78571 19.8631 6.6992 21.9528 8.62171C22.5939 9.21211 23.1324 9.86105 23.567 10.5509L19.5845 11.4837L14.3534 5.88181Z" fill="#EDB244"/>
<path d="M7.22413 6.64618C8.43496 5.53166 10.3992 5.53166 11.61 6.64618C12.8215 7.76015 12.8215 9.56724 11.61 10.6812C10.3992 11.7957 8.43496 11.7957 7.22413 10.6812C6.01269 9.56724 6.01269 7.76015 7.22413 6.64618Z" fill="#50625F"/>
<path d="M19.5846 11.4837L20.4676 13.6895C20.7108 14.2959 20.5481 14.9769 20.051 15.4336L19.6398 15.812L17.8094 13.1168L19.5846 11.4837Z" fill="#E6B263"/>
<path d="M17.8094 13.1168L19.6398 15.812V15.8125L18.4139 16.9403L16.0337 14.7505L17.8094 13.1168Z" fill="#E6B263"/>
<path d="M6.39393 13.2052L12.4823 18.0178L11.469 21.6811C10.7192 21.2813 10.0138 20.7859 9.37209 20.196C7.2824 18.2735 6.28948 15.7242 6.39393 13.2052Z" fill="#EDB244"/>
<path d="M16.0337 14.7505L18.4139 16.9403L17.1875 18.0681L14.2579 16.3841L16.0337 14.7505Z" fill="#E6B263"/>
<path d="M14.258 16.3841L17.1876 18.0681L16.7763 18.4469C16.2793 18.9037 15.5397 19.0534 14.8806 18.8302L12.4823 18.0178L14.258 16.3841Z" fill="#E6B263"/>
<path d="M20.3781 21.405C20.3781 21.5463 20.3195 21.6877 20.2023 21.7955C19.9679 22.0112 19.5878 22.0112 19.3533 21.7955L18.1202 20.6611C17.8859 20.4454 17.8859 20.0957 18.1202 19.88C18.3547 19.6643 18.7348 19.6643 18.9693 19.88L20.2023 21.0144C20.3195 21.1223 20.3781 21.2636 20.3781 21.405Z" fill="#4E2F3D"/>
<path d="M24.9993 22.4477C24.9993 22.5891 24.9407 22.7304 24.8234 22.8383C24.589 23.054 24.2089 23.0539 23.9745 22.8382L19.8647 19.0567C19.6304 18.841 19.6304 18.4913 19.8648 18.2757C20.0992 18.06 20.4793 18.0601 20.7138 18.2758L24.8235 22.0573C24.9407 22.1651 24.9993 22.3064 24.9993 22.4477Z" fill="#4E2F3D"/>
<path d="M24.6884 18.9523C24.6884 19.0937 24.6297 19.2349 24.5126 19.3428C24.2781 19.5585 23.898 19.5585 23.6635 19.3428L21.6087 17.4523C21.3744 17.2366 21.3744 16.8869 21.6087 16.6713C21.8432 16.4556 22.2233 16.4556 22.4578 16.6713L24.5126 18.5617C24.6297 18.6696 24.6884 18.8109 24.6884 18.9523Z" fill="#4E2F3D"/>
<path d="M20.1849 11.4837C20.1849 11.6251 20.1262 11.7663 20.0091 11.8742L12.9068 18.4083C12.6723 18.624 12.2922 18.624 12.0577 18.4083C11.8234 18.1927 11.8234 17.843 12.0577 17.6272L19.1601 11.0931C19.3945 10.8774 19.7746 10.8774 20.0091 11.0931C20.1263 11.201 20.1849 11.3424 20.1849 11.4837Z" fill="#4E2F3D"/>
<path d="M13.1189 8.6637C13.1189 9.57354 12.7337 10.4288 12.0343 11.0719C11.3355 11.7151 10.4059 12.0694 9.41698 12.0694C8.42802 12.0694 7.49844 11.7151 6.79937 11.0717C6.10025 10.4288 5.71509 9.5736 5.71509 8.66376C5.71509 7.75391 6.10025 6.8987 6.79955 6.25556C7.49838 5.61242 8.42797 5.25807 9.41692 5.25807C10.4058 5.25807 11.3353 5.61236 12.0343 6.25556C12.0344 6.25561 12.0343 6.25561 12.0345 6.25578C12.7338 6.89881 13.1189 7.75397 13.1189 8.6637ZM6.91584 8.6637C6.91584 9.2784 7.17601 9.8562 7.64846 10.2906C8.12084 10.7254 8.74889 10.9648 9.41704 10.9648C10.0852 10.9648 10.7132 10.7254 11.1854 10.2908C11.6581 9.8562 11.9182 9.2784 11.9182 8.6637C11.9182 8.049 11.6581 7.4712 11.1856 7.03682C11.1856 7.03671 11.1855 7.03666 11.1854 7.0366C10.7132 6.60195 10.0852 6.36259 9.41704 6.36259C8.74889 6.36259 8.12084 6.60195 7.6487 7.0366C7.17601 7.4712 6.91584 8.049 6.91584 8.6637Z" fill="#4E2F3D"/>
<path d="M17.7878 18.0686C17.7878 18.1685 17.7584 18.2697 17.6965 18.3607C17.5209 18.6194 17.1505 18.6981 16.8693 18.5365L13.9398 16.8525C13.6586 16.6909 13.573 16.3501 13.7488 16.0915C13.9245 15.8328 14.2948 15.7541 14.576 15.9157L17.5055 17.5997C17.6878 17.7044 17.7878 17.8844 17.7878 18.0686Z" fill="#4E2F3D"/>
<path d="M19.0142 16.9403C19.0142 17.0816 18.9556 17.223 18.8384 17.3308C18.604 17.5465 18.2238 17.5465 17.9894 17.3309L15.6091 15.1411C15.3748 14.9254 15.3748 14.5757 15.6091 14.36C15.8435 14.1443 16.2237 14.1443 16.4581 14.36L18.8383 16.5498C18.9556 16.6576 19.0142 16.799 19.0142 16.9403Z" fill="#4E2F3D"/>
<path d="M20.2401 15.8114C20.2401 15.9956 20.1401 16.1755 19.9579 16.2803C19.6767 16.4419 19.3063 16.3632 19.1307 16.1046L17.3004 13.4094C17.1245 13.1508 17.2101 12.81 17.4914 12.6484C17.7726 12.4868 18.1429 12.5655 18.3185 12.8241L20.1489 15.5193C20.2107 15.6103 20.2401 15.7115 20.2401 15.8114Z" fill="#4E2F3D"/>
<path d="M6.99414 13.2048C6.99414 13.3322 6.94648 13.4603 6.84917 13.5645C6.63311 13.7958 6.25414 13.8223 6.0026 13.6235L3.64697 11.7618C3.39556 11.563 3.36675 11.2144 3.58286 10.9829C3.79891 10.7516 4.17789 10.7251 4.42936 10.9239L6.78499 12.7857C6.92319 12.8949 6.99414 13.0494 6.99414 13.2048Z" fill="#4E2F3D"/>
<path d="M21.1782 14.2592C21.1782 14.8362 20.933 15.4037 20.4751 15.8244L20.08 16.1879C20.0749 16.193 20.0696 16.1981 20.0642 16.203L17.201 18.8371C16.5403 19.4441 15.5483 19.6447 14.6732 19.3484L12.2748 18.536C12.2076 18.5132 12.1453 18.4796 12.091 18.4367L6.00266 13.624C5.75125 13.4251 5.7225 13.0765 5.93855 12.8452C6.15466 12.6138 6.53364 12.5874 6.78511 12.7862L12.7912 17.5339L15.0879 18.3119C15.5254 18.46 16.0217 18.3596 16.3521 18.0561L19.1995 15.4365C19.2047 15.4314 19.2099 15.4263 19.2153 15.4214L19.6265 15.0431C19.957 14.7395 20.0658 14.2833 19.9045 13.8806L19.0587 11.768L11.8744 4.07451C11.6583 3.84305 11.6872 3.49439 11.9386 3.29568C12.19 3.09685 12.5691 3.12331 12.7851 3.35466L20.0399 11.1238C20.0865 11.1737 20.1231 11.231 20.1479 11.2928L21.0309 13.4987C21.1301 13.746 21.1782 14.0036 21.1782 14.2592Z" fill="#4E2F3D"/>
<path d="M12.9301 3.71464C12.9301 3.85597 12.8715 3.9973 12.7543 4.10516C12.5199 4.32083 12.1397 4.32083 11.9053 4.10516C10.7116 3.00694 9.305 2.19192 7.72443 1.68266C5.71266 1.03449 3.56726 0.93011 1.4972 1.37691C1.0116 3.2812 1.12506 5.25514 1.82953 7.10597C2.38308 8.56009 3.26902 9.85421 4.46269 10.9524C4.69705 11.168 4.69711 11.5177 4.46269 11.7335C4.22826 11.9492 3.84814 11.9492 3.61366 11.7335C2.29153 10.5171 1.30996 9.08299 0.696378 7.47114C-0.126712 5.30849 -0.221502 2.9944 0.422575 0.779005C0.478044 0.588244 0.640009 0.439236 0.847357 0.388204C3.25546 -0.204291 5.77077 -0.117194 8.12136 0.640215C9.87337 1.20471 11.4321 2.1077 12.7543 3.32412C12.8715 3.43192 12.9301 3.57325 12.9301 3.71464Z" fill="#4E2F3D"/>
<path d="M8.5233 1.16196C8.5233 1.30335 8.46465 1.44463 8.34746 1.55249L1.68813 7.67902C1.4537 7.89469 1.07358 7.89469 0.839102 7.67902C0.604679 7.46319 0.604799 7.11359 0.839102 6.89792L7.49844 0.771385C7.73286 0.555717 8.11298 0.555717 8.34746 0.771385C8.46465 0.879303 8.5233 1.02063 8.5233 1.16196Z" fill="#4E2F3D"/>
<path d="M13.0826 18.0173C13.0826 18.0632 13.0763 18.1095 13.064 18.1541L12.0507 21.8174C12.0043 21.9851 11.8751 22.1232 11.7017 22.1902C11.5283 22.2573 11.3306 22.2457 11.1679 22.159C10.3624 21.7294 9.61548 21.2005 8.94781 20.5868C6.82984 18.6383 5.6794 15.941 5.79394 13.1868C5.8045 12.8903 6.06906 12.6527 6.39389 12.6527C6.72539 12.6527 6.99421 12.8996 6.99421 13.2047V13.2052C6.99421 13.2122 6.99409 13.2193 6.99379 13.2263C6.89179 15.675 7.91377 18.0734 9.79653 19.8055C10.1981 20.1747 10.6318 20.5092 11.0918 20.8052L11.8973 17.893C11.9588 17.6481 12.1974 17.4652 12.4822 17.4652C12.8138 17.4652 13.0826 17.7122 13.0826 18.0173Z" fill="#4E2F3D"/>
<path d="M24.1674 10.5509C24.1674 10.6235 24.1519 10.6963 24.1205 10.7649C24.0475 10.9245 23.8975 11.0434 23.7153 11.0861L19.7328 12.019C19.4114 12.0942 19.0847 11.9156 19.0029 11.62C18.9209 11.3246 19.1152 11.0238 19.4365 10.9485L22.6151 10.204C22.2934 9.7808 21.9296 9.38172 21.5283 9.01213C19.6457 7.28015 17.0388 6.34027 14.3764 6.43382C14.045 6.44542 13.7663 6.20777 13.7536 5.90302C13.7396 5.59876 13.9993 5.34167 14.3306 5.33002C17.3259 5.22492 20.2589 6.28233 22.3774 8.2313C23.0445 8.84567 23.6195 9.53288 24.0865 10.274C24.1402 10.3592 24.1674 10.4549 24.1674 10.5509Z" fill="#4E2F3D"/>
</svg>
