<svg width="14" height="16" viewBox="0 0 14 16" fill="none" xmlns="http://www.w3.org/2000/svg">
<path d="M12.3835 0H1.59166C0.713634 0 0 0.610126 0 1.35993V15.3001C0 15.5319 0.134218 15.748 0.357838 15.8785C0.581459 16.009 0.866401 16.0364 1.11895 15.951L6.98692 13.9686L12.8556 15.951C12.952 15.9839 13.0542 15.9997 13.1557 15.9997C13.3172 15.9997 13.4783 15.9589 13.6153 15.8788C13.8397 15.7486 13.9733 15.5322 13.9733 15.3007V1.35993C13.974 0.610126 13.2604 0 12.3835 0ZM9.71433 7.69564L8.28836 8.58144L8.83272 10.0149C8.8692 10.111 8.82932 10.2164 8.73396 10.2755C8.68557 10.3049 8.62975 10.3201 8.57387 10.3201C8.51766 10.3201 8.4615 10.305 8.41311 10.2755L6.98731 9.38988L5.56141 10.2755C5.46588 10.3347 5.33643 10.3347 5.24118 10.2755C5.14599 10.2164 5.10475 10.1113 5.14174 10.0149L5.68689 8.58144L4.26064 7.69564C4.16511 7.63623 4.12524 7.53123 4.16148 7.435C4.19779 7.33892 4.30251 7.27364 4.42107 7.27364H6.18348L6.72869 5.84096C6.80091 5.64861 7.17355 5.64861 7.24713 5.84096L7.79166 7.27364H9.55447C9.67269 7.27364 9.7769 7.33892 9.81366 7.435C9.84991 7.53094 9.80969 7.63623 9.71433 7.69564Z" fill="#939393"/>
</svg>
