<svg width="36" height="28" viewBox="0 0 36 28" fill="none" xmlns="http://www.w3.org/2000/svg">
<path d="M7.40514 23.9374L16.4898 21.0266C16.7173 20.9067 16.9448 20.7869 17.0989 20.6727L32.0615 6.48393C32.5164 5.94742 32.4431 5.2397 31.834 4.82305L24.7306 0.251356C24.1436 -0.0853858 23.241 -0.136753 22.6686 0.428288L7.63263 14.6114C7.47853 14.7883 7.40514 14.9652 7.32442 15.1479L5.41649 22.6875C5.3211 23.9774 6.64931 24.2 7.40514 23.9374ZM23.9674 2.79689L28.774 5.88464L15.734 18.2756L10.9715 15.2107L23.9674 2.79689ZM9.79006 17.5165L13.0482 19.6168L8.85077 20.9638L9.79006 17.5165Z" fill="#8EA3ED"/>
<path d="M34.4243 25.5983H8.77729C8.77729 25.5983 3.4571 25.7923 3.25897 24.7308C3.25897 24.6737 3.12688 24.4111 3.81667 23.7605C4.35236 23.224 4.27164 22.5163 3.66257 22.0996C2.97278 21.683 2.06285 21.7457 1.52716 22.2195C0.074196 23.5836 -0.30739 24.7707 0.3824 25.8437C2.25364 28.5548 8.54981 27.9155 8.85067 27.9726H34.4243C35.2608 27.9726 35.9506 27.4361 35.9506 26.7854C35.958 26.1291 35.2682 25.5983 34.4243 25.5983Z" fill="#8EA3ED"/>
</svg>
