<svg width="22" height="22" viewBox="0 0 22 22" fill="none" xmlns="http://www.w3.org/2000/svg">
<path d="M0.88225 0.881637C2.88125 0.347022 5.00967 0.423622 6.97221 1.11091V1.11144L1.11205 6.9716H1.11152C0.424234 5.00906 0.347634 2.88063 0.88225 0.881637Z" fill="#FF7124"/>
<path d="M10.9845 17.2344L5.62675 12.631V12.6305L3.55379 10.8497C2.4217 9.71758 1.60762 8.38791 1.11157 6.9716H1.1121L6.97227 1.11144V1.11091C8.38857 1.60696 9.71824 2.42103 10.8503 3.55313L12.6312 5.62608L17.2346 10.9844L15.6724 12.5465L14.1098 14.1091L12.5472 15.6718L10.9845 17.2344ZM10.2169 6.35722C9.1514 5.29116 7.42289 5.29116 6.35735 6.35722C5.29129 7.42275 5.29129 9.15127 6.35735 10.2168C7.42289 11.2829 9.1514 11.2829 10.2169 10.2168C11.283 9.15127 11.283 7.42275 10.2169 6.35722Z" fill="#F2D59F"/>
<path d="M12.6311 5.62609C15.04 5.53417 17.4796 6.40794 19.3185 8.24686C19.8827 8.81159 20.3566 9.43232 20.7391 10.0921L17.2345 10.9844L12.6311 5.62609Z" fill="#F2D59F"/>
<path d="M6.35728 6.35723C7.42282 5.29117 9.15134 5.29117 10.2169 6.35723C11.2829 7.42276 11.2829 9.15128 10.2169 10.2168C9.15134 11.2829 7.42282 11.2829 6.35728 10.2168C5.29122 9.15128 5.29122 7.42276 6.35728 6.35723Z" fill="#8ECAC1"/>
<path d="M17.2345 10.9844L18.0116 13.0943C18.2255 13.6744 18.0824 14.3257 17.6449 14.7626L17.2831 15.1245L15.6724 12.5465L17.2345 10.9844Z" fill="#E6B263"/>
<path d="M15.6724 12.5465L17.2831 15.1245V15.125L16.2044 16.2038L14.1097 14.1092L15.6724 12.5465Z" fill="#E6B263"/>
<path d="M5.62668 12.631L10.9845 17.2344L10.0927 20.7385C9.43291 20.356 8.81218 19.8821 8.24746 19.3179C6.40853 17.479 5.53476 15.0405 5.62668 12.631Z" fill="#F2D59F"/>
<path d="M14.1098 14.1091L16.2044 16.2038L15.1251 17.2825L12.5471 15.6718L14.1098 14.1091Z" fill="#E6B263"/>
<path d="M12.5471 15.6718L15.1251 17.2825L14.7633 17.6449C14.3258 18.0818 13.675 18.2249 13.095 18.0115L10.9845 17.2344L12.5471 15.6718Z" fill="#E6B263"/>
<path d="M17.9329 20.4743C17.9329 20.6095 17.8813 20.7448 17.7782 20.8479C17.5719 21.0542 17.2374 21.0542 17.031 20.8479L15.9459 19.7628C15.7397 19.5565 15.7397 19.222 15.9459 19.0157C16.1522 18.8094 16.4867 18.8094 16.6931 19.0157L17.7782 20.1007C17.8813 20.2039 17.9329 20.3391 17.9329 20.4743Z" fill="#5E2A41"/>
<path d="M21.9995 21.4717C21.9995 21.607 21.9479 21.7422 21.8448 21.8453C21.6385 22.0516 21.304 22.0516 21.0977 21.8453L17.4811 18.2282C17.2749 18.0219 17.2748 17.6874 17.4811 17.4811C17.6874 17.2748 18.0219 17.2748 18.2282 17.4812L21.8448 21.0983C21.948 21.2014 21.9995 21.3365 21.9995 21.4717Z" fill="#5E2A41"/>
<path d="M21.7259 18.1283C21.7259 18.2635 21.6742 18.3986 21.5711 18.5018C21.3648 18.7081 21.0303 18.7081 20.824 18.5018L19.0157 16.6935C18.8095 16.4872 18.8096 16.1527 19.0157 15.9464C19.222 15.7402 19.5565 15.7402 19.7629 15.9464L21.5711 17.7547C21.6742 17.8579 21.7259 17.9931 21.7259 18.1283Z" fill="#5E2A41"/>
<path d="M17.7628 10.9844C17.7628 11.1196 17.7112 11.2548 17.608 11.3579L11.358 17.608C11.1517 17.8143 10.8172 17.8143 10.6109 17.608C10.4046 17.4017 10.4046 17.0672 10.6109 16.8608L16.8609 10.6108C17.0672 10.4045 17.4017 10.4045 17.6081 10.6108C17.7112 10.714 17.7628 10.8492 17.7628 10.9844Z" fill="#5E2A41"/>
<path d="M11.5446 8.28701C11.5446 9.15729 11.2057 9.97533 10.5902 10.5905C9.97528 11.2057 9.15724 11.5447 8.28696 11.5447C7.41668 11.5447 6.59865 11.2057 5.98347 10.5903C5.36824 9.97538 5.0293 9.15735 5.0293 8.28706C5.0293 7.41678 5.36824 6.59875 5.98363 5.98357C6.59859 5.36839 7.41663 5.02945 8.28691 5.02945C9.15709 5.02945 9.97507 5.36834 10.5902 5.98357C10.5903 5.98362 10.5902 5.98362 10.5904 5.98378C11.2057 6.59885 11.5446 7.41684 11.5446 8.28701ZM6.08595 8.28701C6.08595 8.87498 6.31491 9.42766 6.73066 9.84315C7.14636 10.2591 7.69905 10.4881 8.28702 10.4881C8.87499 10.4881 9.42767 10.2591 9.84316 9.84336C10.2591 9.42766 10.4881 8.87498 10.4881 8.28701C10.4881 7.69904 10.2591 7.14636 9.84337 6.73087C9.84332 6.73076 9.84326 6.73071 9.84316 6.73066C9.42767 6.3149 8.87499 6.08595 8.28702 6.08595C7.69905 6.08595 7.14636 6.3149 6.73087 6.73066C6.31491 7.14636 6.08595 7.69904 6.08595 8.28701Z" fill="#5E2A41"/>
<path d="M15.6534 17.283C15.6534 17.3786 15.6275 17.4754 15.573 17.5624C15.4185 17.8099 15.0925 17.8851 14.8451 17.7305L12.2671 16.1198C12.0197 15.9652 11.9444 15.6392 12.099 15.3919C12.2536 15.1444 12.5796 15.0692 12.827 15.2238L15.4049 16.8345C15.5653 16.9347 15.6534 17.1068 15.6534 17.283Z" fill="#5E2A41"/>
<path d="M16.7326 16.2038C16.7326 16.339 16.681 16.4741 16.5779 16.5773C16.3716 16.7836 16.0371 16.7837 15.8307 16.5774L13.7361 14.4827C13.5299 14.2765 13.5299 13.942 13.7361 13.7357C13.9424 13.5294 14.2769 13.5293 14.4832 13.7356L16.5778 15.8302C16.681 15.9333 16.7326 16.0686 16.7326 16.2038Z" fill="#5E2A41"/>
<path d="M17.8115 15.124C17.8115 15.3001 17.7235 15.4723 17.5631 15.5725C17.3156 15.7271 16.9897 15.6518 16.8352 15.4044L15.2244 12.8264C15.0697 12.579 15.145 12.2531 15.3925 12.0984C15.64 11.9439 15.9659 12.0191 16.1205 12.2665L17.7312 14.8445C17.7856 14.9316 17.8115 15.0284 17.8115 15.124Z" fill="#5E2A41"/>
<path d="M6.15491 12.6307C6.15491 12.7526 6.11297 12.875 6.02733 12.9747C5.83721 13.196 5.50371 13.2213 5.28236 13.0312L3.20941 11.2504C2.98816 11.0603 2.96281 10.7268 3.15299 10.5054C3.34311 10.2841 3.67661 10.2588 3.89791 10.449L5.97086 12.2298C6.09247 12.3342 6.15491 12.4821 6.15491 12.6307Z" fill="#5E2A41"/>
<path d="M18.637 13.6392C18.637 14.1912 18.4212 14.734 18.0183 15.1364L17.6706 15.4841C17.666 15.489 17.6614 15.4938 17.6567 15.4985L15.1371 18.0181C14.5556 18.5988 13.6827 18.7906 12.9126 18.5072L10.802 17.7301C10.7428 17.7083 10.688 17.6761 10.6403 17.6351L5.2825 13.0317C5.06126 12.8414 5.03596 12.508 5.22608 12.2867C5.41626 12.0654 5.74976 12.0402 5.97106 12.2303L11.2565 16.7716L13.2775 17.5157C13.6625 17.6574 14.0993 17.5614 14.39 17.271L16.8958 14.7653C16.9003 14.7605 16.9049 14.7556 16.9096 14.7509L17.2715 14.389C17.5623 14.0986 17.6581 13.6623 17.5161 13.2771L16.7718 11.2563L10.4497 3.89736C10.2595 3.67596 10.2849 3.34246 10.5061 3.15238C10.7274 2.9622 11.0609 2.98751 11.2511 3.2088L17.6352 10.6402C17.6763 10.6879 17.7085 10.7427 17.7303 10.8018L18.5074 12.9118C18.5946 13.1484 18.637 13.3948 18.637 13.6392Z" fill="#5E2A41"/>
<path d="M11.3786 3.55313C11.3786 3.68832 11.327 3.82351 11.2238 3.92668C11.0175 4.13297 10.683 4.13297 10.4767 3.92668C9.42627 2.8762 8.18847 2.09663 6.79757 1.6095C5.02721 0.989518 3.13926 0.889673 1.31761 1.31705C0.890284 3.13854 0.990128 5.02666 1.61006 6.79701C2.09718 8.18791 2.87681 9.42577 3.92724 10.4762C4.13348 10.6825 4.13353 11.0169 3.92724 11.2233C3.72094 11.4296 3.38644 11.4296 3.1801 11.2233C2.01662 10.0598 1.15284 8.68808 0.612886 7.14631C-0.111433 5.07769 -0.194848 2.86421 0.371939 0.745137C0.420752 0.562671 0.563281 0.420141 0.745747 0.371328C2.86487 -0.195406 5.07835 -0.112096 7.14687 0.612381C8.68864 1.15233 10.0603 2.01606 11.2238 3.17959C11.327 3.28271 11.3786 3.4179 11.3786 3.55313Z" fill="#5E2A41"/>
<path d="M7.50051 1.11145C7.50051 1.24669 7.4489 1.38182 7.34578 1.48499L1.48556 7.34516C1.27927 7.55145 0.944764 7.55145 0.738419 7.34516C0.532128 7.13871 0.532233 6.80431 0.738419 6.59802L6.59864 0.737853C6.80493 0.531562 7.13943 0.531562 7.34578 0.737853C7.4489 0.841078 7.50051 0.976264 7.50051 1.11145Z" fill="#5E2A41"/>
<path d="M11.5127 17.2339C11.5127 17.2778 11.5072 17.3221 11.4964 17.3647L10.6046 20.8688C10.5638 21.0292 10.45 21.1613 10.2975 21.2254C10.1449 21.2896 9.97096 21.2785 9.82774 21.1955C9.1189 20.7846 8.46162 20.2787 7.87407 19.6917C6.01026 17.8279 4.99787 15.2479 5.09867 12.6134C5.10796 12.3298 5.34078 12.1025 5.62663 12.1025C5.91834 12.1025 6.1549 12.3388 6.1549 12.6306V12.6311C6.1549 12.6378 6.1548 12.6445 6.15453 12.6512C6.06478 14.9935 6.96411 17.2876 8.62095 18.9444C8.97431 19.2975 9.35599 19.6175 9.76075 19.9006L10.4696 17.115C10.5237 16.8807 10.7337 16.7059 10.9843 16.7059C11.2761 16.7059 11.5127 16.9421 11.5127 17.2339Z" fill="#5E2A41"/>
<path d="M21.2673 10.0921C21.2673 10.1616 21.2536 10.2312 21.226 10.2969C21.1618 10.4496 21.0298 10.5633 20.8694 10.6041L17.3648 11.4964C17.082 11.5684 16.7945 11.3975 16.7225 11.1148C16.6504 10.8322 16.8214 10.5445 17.1041 10.4725L19.9012 9.76038C19.6181 9.35556 19.298 8.97383 18.9448 8.62031C17.2882 6.96363 14.9941 6.06461 12.6512 6.1541C12.3596 6.1652 12.1143 5.93788 12.1031 5.64638C12.0908 5.35535 12.3194 5.10944 12.6109 5.09829C15.2468 4.99776 17.8278 6.0092 19.6921 7.87343C20.2792 8.46109 20.7851 9.11842 21.1961 9.82731C21.2434 9.90877 21.2673 10.0003 21.2673 10.0921Z" fill="#5E2A41"/>
</svg>
