<svg width="16" height="16" viewBox="0 0 16 16" fill="none" xmlns="http://www.w3.org/2000/svg">
<path d="M15.7983 14.854L11.2077 10.26C12.1127 9.17468 12.657 7.78766 12.657 6.27275C12.657 2.81666 9.82068 0.00653076 6.3318 0.00653076C2.84291 0.00653076 0 2.81993 0 6.27603C0 9.73212 2.83636 12.5422 6.32524 12.5422C7.80736 12.5422 9.17143 12.034 10.2535 11.1847L14.8605 15.7918C15.1294 16.0606 15.5295 16.0606 15.7983 15.7918C16.0672 15.5229 16.0672 15.1228 15.7983 14.854ZM1.3444 6.27603C1.3444 3.56099 3.58069 1.35421 6.32524 1.35421C9.06978 1.35421 11.3061 3.56099 11.3061 6.27603C11.3061 8.99106 9.06978 11.1978 6.32524 11.1978C3.58069 11.1978 1.3444 8.98778 1.3444 6.27603Z" fill="#C9CACB"/>
</svg>
