<svg width="222" height="25" viewBox="0 0 222 25" fill="none" xmlns="http://www.w3.org/2000/svg">
<path d="M0.912 18C0.912 17.536 0.944 17.16 1.008 16.872C1.088 16.568 1.184 16.392 1.296 16.344L3.072 15.696L2.568 16.32V4.416L3.096 5.016L0.912 4.44C0.912 4.12 0.944 3.816 1.008 3.528C1.072 3.24 1.184 2.936 1.344 2.616H9.792C11.008 2.616 12.064 2.816 12.96 3.216C13.856 3.6 14.592 4.128 15.168 4.8C15.76 5.456 16.192 6.208 16.464 7.056C16.752 7.904 16.896 8.792 16.896 9.72C16.896 10.744 16.728 11.752 16.392 12.744C16.056 13.72 15.568 14.608 14.928 15.408C14.288 16.192 13.504 16.824 12.576 17.304C11.664 17.768 10.616 18 9.432 18H0.912ZM8.856 15.696C9.448 15.696 9.952 15.552 10.368 15.264C10.784 14.976 11.128 14.584 11.4 14.088C11.672 13.576 11.872 12.984 12 12.312C12.128 11.64 12.192 10.912 12.192 10.128C12.192 9.2 12.064 8.344 11.808 7.56C11.568 6.76 11.208 6.12 10.728 5.64C10.248 5.16 9.64 4.92 8.904 4.92C8.456 4.92 8.008 4.968 7.56 5.064C7.128 5.16 6.776 5.296 6.504 5.472L7.032 4.944V15.552L6.792 15.216C7.08 15.392 7.4 15.52 7.752 15.6C8.12 15.664 8.488 15.696 8.856 15.696ZM18.2278 18C18.2278 16.992 18.3558 16.44 18.6118 16.344L20.2198 15.672L19.9558 16.08V9.024L20.2438 9.384L18.6118 8.928C18.3558 8.848 18.2278 8.312 18.2278 7.32C18.9318 7.208 19.6358 7.112 20.3398 7.032C21.0598 6.952 21.8358 6.912 22.6678 6.912C23.7718 6.912 24.3238 7.488 24.3238 8.64V15.96L24.0358 15.6L26.2918 16.176C26.2918 16.528 26.2518 16.84 26.1718 17.112C26.1078 17.384 25.9878 17.68 25.8118 18H18.2278ZM21.9958 5.304C21.2598 5.304 20.6998 5.096 20.3158 4.68C19.9318 4.264 19.7398 3.72 19.7398 3.048C19.7398 2.392 19.9638 1.856 20.4118 1.44C20.8758 1.008 21.4038 0.792 21.9958 0.792C22.7478 0.792 23.3158 1 23.6998 1.416C24.0998 1.832 24.2998 2.376 24.2998 3.048C24.2998 3.688 24.0678 4.224 23.6038 4.656C23.1398 5.088 22.6038 5.304 21.9958 5.304ZM32.8672 24.48C31.1873 24.48 29.8513 24.184 28.8593 23.592C27.8673 23.016 27.3713 22.24 27.3713 21.264C27.3713 20.096 28.0513 19.512 29.4113 19.512C29.7313 19.512 30.0673 19.544 30.4193 19.608C30.7713 19.672 31.1073 19.768 31.4273 19.896C31.4273 20.968 31.6033 21.76 31.9553 22.272C32.3233 22.784 32.8913 23.04 33.6593 23.04C34.2353 23.04 34.6833 22.896 35.0033 22.608C35.3233 22.32 35.4833 21.92 35.4833 21.408C35.4833 21.008 35.3873 20.688 35.1953 20.448C35.0033 20.208 34.6673 20.016 34.1873 19.872C33.7233 19.744 33.0753 19.64 32.2433 19.56C30.9473 19.432 30.0273 19.208 29.4833 18.888C28.9393 18.584 28.6673 18.12 28.6673 17.496C28.6673 16.856 28.9233 16.264 29.4353 15.72C29.9473 15.176 30.6593 14.744 31.5713 14.424L32.0993 14.784C31.9873 14.944 31.9073 15.088 31.8593 15.216C31.8113 15.328 31.7873 15.448 31.7873 15.576C31.7873 15.752 31.8353 15.888 31.9313 15.984C32.0433 16.08 32.2513 16.16 32.5553 16.224C32.8593 16.288 33.3073 16.352 33.8993 16.416C35.6593 16.592 36.9713 16.984 37.8353 17.592C38.6993 18.2 39.1313 19.048 39.1313 20.136C39.1313 21.016 38.8753 21.784 38.3633 22.44C37.8673 23.096 37.1473 23.6 36.2033 23.952C35.2753 24.304 34.1633 24.48 32.8672 24.48ZM32.3393 15.264C30.7873 15.264 29.5713 14.928 28.6913 14.256C27.8273 13.584 27.3953 12.648 27.3953 11.448C27.3953 10.552 27.6353 9.768 28.1152 9.096C28.6113 8.408 29.2913 7.872 30.1553 7.488C31.0353 7.104 32.0513 6.912 33.2033 6.912C34.2593 6.912 35.1633 7.072 35.9153 7.392C36.6833 7.712 37.2753 8.16 37.6913 8.736C38.1073 9.312 38.3153 10 38.3153 10.8C38.3153 11.664 38.0593 12.432 37.5473 13.104C37.0353 13.776 36.3313 14.304 35.4353 14.688C34.5393 15.072 33.5073 15.264 32.3393 15.264ZM32.8913 13.704C33.2753 13.704 33.5713 13.496 33.7793 13.08C33.9873 12.664 34.0913 12.064 34.0913 11.28C34.0913 10.4 33.9713 9.712 33.7313 9.216C33.5073 8.72 33.1873 8.472 32.7713 8.472C32.4033 8.472 32.1153 8.688 31.9073 9.12C31.7153 9.536 31.6193 10.144 31.6193 10.944C31.6193 11.824 31.7313 12.504 31.9553 12.984C32.1793 13.464 32.4913 13.704 32.8913 13.704ZM37.6913 8.736C37.4673 8.736 37.1793 8.72 36.8273 8.688C36.4913 8.656 36.1553 8.616 35.8193 8.568C35.4993 8.504 35.2353 8.448 35.0273 8.4L34.7153 7.632L38.7953 5.976C38.9233 6.216 39.0273 6.488 39.1073 6.792C39.2033 7.096 39.2513 7.36 39.2513 7.584C39.2513 8.352 38.7313 8.736 37.6913 8.736ZM40.2122 18C40.2122 16.992 40.3402 16.44 40.5962 16.344L42.2042 15.672L41.9402 16.08V9.024L42.2282 9.384L40.5962 8.928C40.3402 8.848 40.2122 8.312 40.2122 7.32C40.9162 7.208 41.6202 7.112 42.3242 7.032C43.0442 6.952 43.8202 6.912 44.6522 6.912C45.7562 6.912 46.3082 7.488 46.3082 8.64V15.96L46.0202 15.6L48.2762 16.176C48.2762 16.528 48.2362 16.84 48.1562 17.112C48.0922 17.384 47.9722 17.68 47.7962 18H40.2122ZM43.9802 5.304C43.2442 5.304 42.6842 5.096 42.3002 4.68C41.9162 4.264 41.7242 3.72 41.7242 3.048C41.7242 2.392 41.9482 1.856 42.3962 1.44C42.8602 1.008 43.3882 0.792 43.9802 0.792C44.7322 0.792 45.3002 1 45.6842 1.416C46.0842 1.832 46.2842 2.376 46.2842 3.048C46.2842 3.688 46.0522 4.224 45.5882 4.656C45.1242 5.088 44.5882 5.304 43.9802 5.304ZM53.6036 18.288C52.4676 18.288 51.6356 17.92 51.1076 17.184C50.5956 16.448 50.3396 15.48 50.3396 14.28V5.688C50.6596 5.48 51.0596 5.288 51.5396 5.112C52.0356 4.92 52.5556 4.76 53.0996 4.632C53.6596 4.488 54.1956 4.392 54.7076 4.344V13.632C54.7076 14.24 54.8116 14.704 55.0196 15.024C55.2276 15.344 55.5796 15.504 56.0756 15.504C56.2996 15.504 56.5476 15.472 56.8196 15.408C57.0916 15.328 57.3636 15.208 57.6356 15.048L58.2596 16.272C57.9876 16.672 57.6036 17.024 57.1076 17.328C56.6276 17.632 56.0836 17.864 55.4756 18.024C54.8676 18.2 54.2436 18.288 53.6036 18.288ZM56.7476 9.6L48.8756 9.312C48.8756 8.912 48.9156 8.52 48.9956 8.136C49.0916 7.752 49.2196 7.504 49.3796 7.392L57.4196 6.912C57.4676 7.024 57.4996 7.144 57.5156 7.272C57.5476 7.384 57.5636 7.504 57.5636 7.632C57.5636 8.112 57.4916 8.536 57.3476 8.904C57.2196 9.256 57.0196 9.488 56.7476 9.6ZM61.1513 18.288C60.4313 18.288 59.8313 18.056 59.3513 17.592C58.8873 17.112 58.6553 16.504 58.6553 15.768C58.6553 14.872 58.9593 14.12 59.5673 13.512C60.1913 12.888 61.0873 12.448 62.2553 12.192L65.4713 11.448L65.1833 11.928V10.608C65.1833 9.808 65.0953 9.248 64.9193 8.928C64.7593 8.608 64.4633 8.448 64.0312 8.448C63.5353 8.448 63.1593 8.64 62.9033 9.024C62.6633 9.408 62.5273 10.024 62.4953 10.872C62.3673 11.032 62.1593 11.16 61.8713 11.256C61.5993 11.352 61.2953 11.4 60.9593 11.4C60.3993 11.4 59.9673 11.272 59.6633 11.016C59.3593 10.744 59.2073 10.384 59.2073 9.936C59.2073 9.36 59.4393 8.848 59.9033 8.4C60.3833 7.936 61.0313 7.576 61.8473 7.32C62.6793 7.048 63.6073 6.912 64.6313 6.912C66.1993 6.912 67.4073 7.248 68.2553 7.92C69.1193 8.576 69.5513 9.512 69.5513 10.728V15.096C69.5513 15.4 69.5993 15.616 69.6953 15.744C69.8073 15.872 70.0073 15.936 70.2953 15.936C70.4393 15.936 70.5833 15.92 70.7273 15.888C70.8713 15.84 70.9833 15.8 71.0633 15.768L71.3753 17.016C70.9433 17.384 70.4153 17.688 69.7913 17.928C69.1673 18.168 68.5833 18.288 68.0393 18.288C67.2233 18.288 66.5833 18.096 66.1193 17.712C65.6713 17.312 65.4473 16.776 65.4473 16.104H65.2313C64.7033 16.76 64.0633 17.288 63.3113 17.688C62.5593 18.088 61.8393 18.288 61.1513 18.288ZM63.4073 15.816C63.7113 15.816 64.0793 15.696 64.5113 15.456C64.9593 15.216 65.3273 14.936 65.6153 14.616L65.2313 15.48V12.864L65.6873 12.936L63.6233 13.44C63.2393 13.52 62.9433 13.68 62.7353 13.92C62.5273 14.16 62.4233 14.44 62.4233 14.76C62.4233 15.064 62.5113 15.32 62.6873 15.528C62.8793 15.72 63.1193 15.816 63.4073 15.816ZM71.985 18C71.985 17.472 72.017 17.08 72.081 16.824C72.145 16.552 72.241 16.392 72.369 16.344L73.977 15.672L73.713 16.08V2.496L74.001 2.856L72.369 2.4C72.113 2.32 71.985 1.784 71.985 0.792C72.689 0.679999 73.393 0.583999 74.097 0.503999C74.817 0.423999 75.593 0.383999 76.425 0.383999C77.529 0.383999 78.081 0.959999 78.081 2.112V15.96L77.793 15.6L80.049 16.176C80.049 16.528 80.009 16.84 79.929 17.112C79.865 17.384 79.745 17.68 79.569 18H71.985ZM81.0917 18C81.0917 17.536 81.1237 17.16 81.1877 16.872C81.2677 16.568 81.3637 16.392 81.4757 16.344L83.2517 15.696L82.7477 16.32V4.416L83.2757 5.016L81.0917 4.44C81.0917 4.12 81.1237 3.816 81.1877 3.528C81.2517 3.24 81.3637 2.936 81.5237 2.616H89.9717C91.1877 2.616 92.2437 2.816 93.1397 3.216C94.0357 3.6 94.7717 4.128 95.3477 4.8C95.9397 5.456 96.3717 6.208 96.6437 7.056C96.9317 7.904 97.0757 8.792 97.0757 9.72C97.0757 10.744 96.9077 11.752 96.5717 12.744C96.2357 13.72 95.7477 14.608 95.1077 15.408C94.4677 16.192 93.6837 16.824 92.7557 17.304C91.8437 17.768 90.7957 18 89.6117 18H81.0917ZM89.0357 15.696C89.6277 15.696 90.1317 15.552 90.5477 15.264C90.9637 14.976 91.3077 14.584 91.5797 14.088C91.8517 13.576 92.0517 12.984 92.1797 12.312C92.3077 11.64 92.3717 10.912 92.3717 10.128C92.3717 9.2 92.2437 8.344 91.9877 7.56C91.7477 6.76 91.3877 6.12 90.9077 5.64C90.4277 5.16 89.8197 4.92 89.0837 4.92C88.6357 4.92 88.1877 4.968 87.7397 5.064C87.3077 5.16 86.9557 5.296 86.6837 5.472L87.2117 4.944V15.552L86.9717 15.216C87.2597 15.392 87.5797 15.52 87.9317 15.6C88.2997 15.664 88.6677 15.696 89.0357 15.696ZM104.29 18.288C103.138 18.288 102.114 18.056 101.218 17.592C100.338 17.128 99.6503 16.488 99.1543 15.672C98.6583 14.856 98.4103 13.912 98.4103 12.84C98.4103 11.704 98.6823 10.688 99.2263 9.792C99.7703 8.896 100.514 8.192 101.458 7.68C102.402 7.168 103.474 6.912 104.674 6.912C105.73 6.912 106.634 7.12 107.386 7.536C108.154 7.936 108.746 8.504 109.162 9.24C109.578 9.976 109.786 10.856 109.786 11.88C109.786 12.376 109.73 12.696 109.618 12.84C109.506 12.984 109.266 13.056 108.898 13.056H101.53V11.472L106.138 11.328L105.85 11.808C105.85 11.056 105.802 10.432 105.706 9.936C105.61 9.424 105.466 9.048 105.274 8.808C105.082 8.552 104.834 8.424 104.53 8.424C104.082 8.424 103.722 8.712 103.45 9.288C103.178 9.864 103.042 10.648 103.042 11.64C103.042 12.584 103.17 13.384 103.426 14.04C103.698 14.68 104.09 15.16 104.602 15.48C105.13 15.8 105.778 15.96 106.546 15.96C107.058 15.96 107.538 15.88 107.986 15.72C108.434 15.56 108.93 15.296 109.474 14.928L109.93 16.128C109.546 16.544 109.05 16.92 108.442 17.256C107.834 17.576 107.17 17.824 106.45 18C105.746 18.192 105.026 18.288 104.29 18.288ZM111.126 23.76C111.126 22.768 111.254 22.216 111.51 22.104L112.878 21.432L112.614 21.84V9.288L112.878 9.672L111.51 9.192C111.254 9.112 111.126 8.576 111.126 7.584C112.07 7.44 112.822 7.336 113.382 7.272C113.942 7.208 114.406 7.176 114.774 7.176C115.462 7.176 115.958 7.312 116.262 7.584C116.582 7.856 116.742 8.296 116.742 8.904V9.096L116.646 9.048H116.982C117.366 8.408 117.934 7.896 118.686 7.512C119.454 7.112 120.23 6.912 121.014 6.912C121.814 6.912 122.518 7.128 123.126 7.56C123.734 7.992 124.206 8.6 124.542 9.384C124.878 10.152 125.046 11.056 125.046 12.096C125.046 13.344 124.814 14.432 124.35 15.36C123.886 16.288 123.23 17.008 122.382 17.52C121.55 18.032 120.566 18.288 119.43 18.288C118.982 18.288 118.526 18.248 118.062 18.168C117.598 18.088 117.142 17.968 116.694 17.808L116.982 17.616V21.72L116.694 21.36L118.95 21.936C118.95 22.288 118.91 22.6 118.83 22.872C118.766 23.144 118.646 23.44 118.47 23.76H111.126ZM118.254 16.464C118.942 16.464 119.47 16.136 119.838 15.48C120.222 14.824 120.414 13.904 120.414 12.72C120.414 11.68 120.262 10.896 119.958 10.368C119.67 9.824 119.23 9.552 118.638 9.552C118.27 9.552 117.95 9.648 117.678 9.84C117.422 10.016 117.198 10.224 117.006 10.464C116.83 10.704 116.67 10.92 116.526 11.112L116.886 10.272V16.176L116.526 15.504C116.75 15.808 117.006 16.048 117.294 16.224C117.582 16.384 117.902 16.464 118.254 16.464ZM129.003 18.288C128.283 18.288 127.683 18.056 127.203 17.592C126.739 17.112 126.507 16.504 126.507 15.768C126.507 14.872 126.811 14.12 127.419 13.512C128.043 12.888 128.939 12.448 130.107 12.192L133.323 11.448L133.035 11.928V10.608C133.035 9.808 132.947 9.248 132.771 8.928C132.611 8.608 132.315 8.448 131.883 8.448C131.387 8.448 131.011 8.64 130.755 9.024C130.515 9.408 130.379 10.024 130.347 10.872C130.219 11.032 130.011 11.16 129.723 11.256C129.451 11.352 129.147 11.4 128.811 11.4C128.251 11.4 127.819 11.272 127.515 11.016C127.211 10.744 127.059 10.384 127.059 9.936C127.059 9.36 127.291 8.848 127.755 8.4C128.235 7.936 128.883 7.576 129.699 7.32C130.531 7.048 131.459 6.912 132.483 6.912C134.051 6.912 135.259 7.248 136.107 7.92C136.971 8.576 137.403 9.512 137.403 10.728V15.096C137.403 15.4 137.451 15.616 137.547 15.744C137.659 15.872 137.859 15.936 138.147 15.936C138.291 15.936 138.435 15.92 138.579 15.888C138.723 15.84 138.835 15.8 138.915 15.768L139.227 17.016C138.795 17.384 138.267 17.688 137.643 17.928C137.019 18.168 136.435 18.288 135.891 18.288C135.075 18.288 134.435 18.096 133.971 17.712C133.523 17.312 133.299 16.776 133.299 16.104H133.083C132.555 16.76 131.915 17.288 131.163 17.688C130.411 18.088 129.691 18.288 129.003 18.288ZM131.259 15.816C131.563 15.816 131.931 15.696 132.363 15.456C132.811 15.216 133.179 14.936 133.467 14.616L133.083 15.48V12.864L133.539 12.936L131.475 13.44C131.091 13.52 130.795 13.68 130.587 13.92C130.379 14.16 130.275 14.44 130.275 14.76C130.275 15.064 130.363 15.32 130.539 15.528C130.731 15.72 130.971 15.816 131.259 15.816ZM140.197 18C140.197 17.008 140.325 16.456 140.581 16.344L141.949 15.672L141.685 16.08V9.288L141.949 9.672L140.581 9.192C140.469 9.16 140.373 9 140.293 8.712C140.229 8.424 140.197 8.048 140.197 7.584C141.189 7.424 141.957 7.32 142.501 7.272C143.045 7.208 143.493 7.176 143.845 7.176C144.613 7.176 145.133 7.312 145.405 7.584C145.677 7.84 145.813 8.336 145.813 9.072V9.648L145.477 9.288H145.981C146.301 8.552 146.725 7.976 147.253 7.56C147.781 7.128 148.341 6.912 148.933 6.912C149.685 6.912 150.253 7.088 150.637 7.44C151.037 7.776 151.237 8.288 151.237 8.976C151.237 9.52 151.037 9.984 150.637 10.368C150.237 10.752 149.757 10.944 149.197 10.944C149.037 10.576 148.845 10.312 148.621 10.152C148.397 9.992 148.125 9.912 147.805 9.912C147.501 9.912 147.157 10.008 146.773 10.2C146.389 10.392 146.085 10.664 145.861 11.016L146.053 10.272V16.176L145.669 15.528L148.021 16.176C148.021 16.528 147.981 16.84 147.901 17.112C147.837 17.384 147.717 17.68 147.541 18H140.197ZM156.096 18.288C154.96 18.288 154.128 17.92 153.6 17.184C153.088 16.448 152.832 15.48 152.832 14.28V5.688C153.152 5.48 153.552 5.288 154.032 5.112C154.528 4.92 155.048 4.76 155.592 4.632C156.152 4.488 156.688 4.392 157.2 4.344V13.632C157.2 14.24 157.304 14.704 157.512 15.024C157.72 15.344 158.072 15.504 158.568 15.504C158.792 15.504 159.04 15.472 159.312 15.408C159.584 15.328 159.856 15.208 160.128 15.048L160.752 16.272C160.48 16.672 160.096 17.024 159.6 17.328C159.12 17.632 158.576 17.864 157.968 18.024C157.36 18.2 156.736 18.288 156.096 18.288ZM159.24 9.6L151.368 9.312C151.368 8.912 151.408 8.52 151.488 8.136C151.584 7.752 151.712 7.504 151.872 7.392L159.912 6.912C159.96 7.024 159.992 7.144 160.008 7.272C160.04 7.384 160.056 7.504 160.056 7.632C160.056 8.112 159.984 8.536 159.84 8.904C159.712 9.256 159.512 9.488 159.24 9.6ZM161.243 18C161.243 17.008 161.371 16.456 161.627 16.344L162.995 15.672L162.731 16.08V9.288L162.995 9.672L161.627 9.192C161.371 9.112 161.243 8.576 161.243 7.584C162.187 7.44 162.939 7.336 163.499 7.272C164.059 7.208 164.523 7.176 164.891 7.176C165.579 7.176 166.075 7.312 166.379 7.584C166.699 7.856 166.859 8.296 166.859 8.904V9.096L166.763 9.048H167.099C167.851 8.376 168.619 7.856 169.403 7.488C170.187 7.104 170.923 6.912 171.611 6.912C172.507 6.912 173.155 7.216 173.555 7.824C173.971 8.416 174.179 9.328 174.179 10.56V16.176L173.891 15.816L175.187 16.176C175.187 16.528 175.147 16.84 175.067 17.112C175.003 17.384 174.883 17.68 174.707 18H168.803C168.803 17.008 168.931 16.456 169.187 16.344L170.051 15.912L169.811 16.32V11.232C169.811 10.288 169.499 9.816 168.875 9.816C168.555 9.816 168.259 9.888 167.987 10.032C167.731 10.176 167.515 10.328 167.339 10.488C167.179 10.648 167.075 10.752 167.027 10.8L167.099 10.44V16.176L166.811 15.816L168.107 16.176C168.107 16.528 168.067 16.84 167.987 17.112C167.923 17.384 167.803 17.68 167.627 18H161.243ZM175.883 18C175.883 17.008 176.011 16.456 176.267 16.344L177.131 15.912L176.891 16.32V11.232C176.891 10.288 176.579 9.816 175.955 9.816C175.539 9.816 175.171 9.936 174.851 10.176C174.531 10.416 174.307 10.6 174.179 10.728L173.771 9.048H174.179C174.931 8.376 175.699 7.856 176.483 7.488C177.267 7.104 178.003 6.912 178.691 6.912C179.587 6.912 180.235 7.216 180.635 7.824C181.051 8.416 181.259 9.32 181.259 10.536V15.96L180.995 15.576L182.747 16.176C182.747 16.528 182.707 16.84 182.627 17.112C182.563 17.384 182.443 17.68 182.267 18H175.883ZM189.954 18.288C188.802 18.288 187.778 18.056 186.882 17.592C186.002 17.128 185.314 16.488 184.818 15.672C184.322 14.856 184.074 13.912 184.074 12.84C184.074 11.704 184.346 10.688 184.89 9.792C185.434 8.896 186.178 8.192 187.122 7.68C188.066 7.168 189.138 6.912 190.338 6.912C191.394 6.912 192.298 7.12 193.05 7.536C193.818 7.936 194.41 8.504 194.826 9.24C195.242 9.976 195.45 10.856 195.45 11.88C195.45 12.376 195.394 12.696 195.282 12.84C195.17 12.984 194.93 13.056 194.562 13.056H187.194V11.472L191.802 11.328L191.514 11.808C191.514 11.056 191.466 10.432 191.37 9.936C191.274 9.424 191.13 9.048 190.938 8.808C190.746 8.552 190.498 8.424 190.194 8.424C189.746 8.424 189.386 8.712 189.114 9.288C188.842 9.864 188.706 10.648 188.706 11.64C188.706 12.584 188.834 13.384 189.09 14.04C189.362 14.68 189.754 15.16 190.266 15.48C190.794 15.8 191.442 15.96 192.21 15.96C192.722 15.96 193.202 15.88 193.65 15.72C194.098 15.56 194.594 15.296 195.138 14.928L195.594 16.128C195.21 16.544 194.714 16.92 194.106 17.256C193.498 17.576 192.834 17.824 192.114 18C191.41 18.192 190.69 18.288 189.954 18.288ZM197.15 18C197.15 17.008 197.278 16.456 197.534 16.344L198.902 15.672L198.638 16.08V9.288L198.902 9.672L197.534 9.192C197.278 9.112 197.15 8.576 197.15 7.584C198.094 7.44 198.846 7.336 199.406 7.272C199.966 7.208 200.43 7.176 200.798 7.176C201.486 7.176 201.982 7.312 202.286 7.584C202.606 7.856 202.766 8.296 202.766 8.904V9.096L202.67 9.048H203.006C203.774 8.376 204.558 7.856 205.358 7.488C206.158 7.104 206.902 6.912 207.59 6.912C209.414 6.912 210.326 8.12 210.326 10.536V15.96L210.062 15.576L211.814 16.176C211.814 16.528 211.774 16.84 211.694 17.112C211.63 17.384 211.51 17.68 211.334 18H204.95C204.95 17.008 205.078 16.456 205.334 16.344L206.198 15.912L205.958 16.32V11.232C205.958 10.288 205.622 9.816 204.95 9.816C204.598 9.816 204.278 9.888 203.99 10.032C203.702 10.176 203.462 10.328 203.27 10.488C203.094 10.648 202.982 10.752 202.934 10.8L203.006 10.44V16.176L202.718 15.816L204.014 16.176C204.014 16.528 203.974 16.84 203.894 17.112C203.83 17.384 203.71 17.68 203.534 18H197.15ZM217.151 18.288C216.015 18.288 215.183 17.92 214.655 17.184C214.143 16.448 213.887 15.48 213.887 14.28V5.688C214.207 5.48 214.607 5.288 215.087 5.112C215.583 4.92 216.103 4.76 216.647 4.632C217.207 4.488 217.743 4.392 218.255 4.344V13.632C218.255 14.24 218.359 14.704 218.567 15.024C218.775 15.344 219.127 15.504 219.623 15.504C219.847 15.504 220.095 15.472 220.367 15.408C220.639 15.328 220.911 15.208 221.183 15.048L221.807 16.272C221.535 16.672 221.151 17.024 220.655 17.328C220.175 17.632 219.631 17.864 219.023 18.024C218.415 18.2 217.791 18.288 217.151 18.288ZM220.295 9.6L212.423 9.312C212.423 8.912 212.463 8.52 212.543 8.136C212.639 7.752 212.767 7.504 212.927 7.392L220.967 6.912C221.015 7.024 221.047 7.144 221.063 7.272C221.095 7.384 221.111 7.504 221.111 7.632C221.111 8.112 221.039 8.536 220.895 8.904C220.767 9.256 220.567 9.488 220.295 9.6Z" fill="#617480"/>
</svg>
