<svg width="64" height="64" viewBox="0 0 64 64" fill="none" xmlns="http://www.w3.org/2000/svg">
<g clip-path="url(#clip0_39_132)">
<path d="M32 64C49.6731 64 64 49.6731 64 32C64 14.3269 49.6731 0 32 0C14.3269 0 0 14.3269 0 32C0 49.6731 14.3269 64 32 64Z" fill="#7EAAC3"/>
<path fill-rule="evenodd" clip-rule="evenodd" d="M24.198 39.9515L40.5563 40.1824V53.5603L24.083 53.435L24.198 39.9515Z" fill="#F9DCA4"/>
<path fill-rule="evenodd" clip-rule="evenodd" d="M55.3819 53.844C52.3917 57.0529 48.7721 59.6109 44.7492 61.3583C40.7262 63.1058 36.3861 64.0051 32 64.0002C30.6717 64.0001 29.3447 63.9181 28.0264 63.7547C23.9836 63.1754 20.072 61.8985 16.466 59.981C13.4227 58.2872 10.675 56.1099 8.33032 53.5344L9.659 50.324L24.0798 43.8909C24.727 47.7464 32.172 52.3569 32.172 52.3569C32.172 52.3569 39.649 48.8234 40.5562 43.8536L53.8015 50.3582L55.3819 53.844Z" fill="#7EAAC3"/>
<path opacity="0.11" fill-rule="evenodd" clip-rule="evenodd" d="M40.5593 40.1586V43.8661C40.5148 44.01 40.4827 44.2016 40.4195 44.4315C40.3497 44.6734 40.2657 44.911 40.1679 45.1429C39.9918 45.5665 38.775 45.2082 38.5441 45.5727C32.9777 49.885 26.1293 46.4716 24.1958 40.141L40.5593 40.1586Z" fill="black"/>
<path fill-rule="evenodd" clip-rule="evenodd" d="M32.2373 8.73218C54.2759 8.73218 45.6866 45.2537 32.2373 45.2537C19.5346 45.2537 10.1986 8.73218 32.2373 8.73218Z" fill="#FFE8BE"/>
<path fill-rule="evenodd" clip-rule="evenodd" d="M19.0188 24.9011C15.8395 26.2888 18.5425 32.8617 20.5432 32.8317C19.7134 30.2603 19.2015 27.5969 19.0188 24.9011Z" fill="#F9DCA4"/>
<path fill-rule="evenodd" clip-rule="evenodd" d="M45.7114 24.9011C48.8907 26.2877 46.1877 32.8617 44.188 32.8317C45.0173 30.2602 45.5289 27.5968 45.7114 24.9011Z" fill="#F9DCA4"/>
<path fill-rule="evenodd" clip-rule="evenodd" d="M19.3657 27.9581C19.3657 27.9581 15.9689 26.1396 16.9403 19.6671C17.9117 13.1946 23.2709 9.89204 25.251 10.3777C21.6089 15.5349 19.5624 21.6486 19.3657 27.9592V27.9581Z" fill="#969696"/>
<path fill-rule="evenodd" clip-rule="evenodd" d="M45.4007 27.9582C45.4007 27.9582 48.7975 26.1397 47.8271 19.6671C46.8567 13.1946 41.4872 10.036 39.5071 10.5228C43.1582 15.6211 45.2101 21.6903 45.4017 27.9582H45.4007Z" fill="#969696"/>
<path fill-rule="evenodd" clip-rule="evenodd" d="M24.083 42.7093L32.1721 52.357L25.6354 56.0365L20.6355 45.0684L24.083 42.7093Z" fill="#434955"/>
<path fill-rule="evenodd" clip-rule="evenodd" d="M40.5564 42.8957L32.1721 52.3569L38.9284 56.0364L43.8806 44.9358L40.5564 42.8957Z" fill="#434955"/>
<path fill-rule="evenodd" clip-rule="evenodd" d="M32.2363 36.942C30.569 39.0411 24.2963 39.8178 24.0706 36.0524C25.5328 36.7255 26.7579 36.5671 28.9317 34.8273C31.1064 33.0885 32.256 35.1431 32.256 35.1431C32.256 35.1431 33.4811 33.0885 35.6558 34.8273C37.8296 36.5671 39.0547 36.7245 40.517 36.0524C40.2912 39.8178 33.9036 39.0411 32.2363 36.942Z" fill="#969696"/>
<path d="M27.132 31.839C28.955 31.839 30.4329 30.3612 30.4329 28.5381C30.4329 26.7151 28.955 25.2372 27.132 25.2372C25.3089 25.2372 23.8311 26.7151 23.8311 28.5381C23.8311 30.3612 25.3089 31.839 27.132 31.839Z" fill="#E6E6E6"/>
<path fill-rule="evenodd" clip-rule="evenodd" d="M37.585 31.3757C39.3269 30.8082 39.0162 31.0173 38.6703 31.1603C37.2019 31.3757 36.8342 31.298 36.4997 31.1603C36.8439 31.3024 37.2126 31.3756 37.585 31.3757ZM38.6693 25.916H36.5008C36.8446 25.774 37.213 25.7011 37.585 25.7016C37.213 25.7015 36.8445 25.7747 36.5008 25.917H38.6693V25.916ZM45.3779 27.169L41.424 27.9592L41.3101 27.9851L41.2894 27.8712C41.222 27.4966 41.0981 27.1345 40.9217 26.7973C40.7441 26.4583 40.5161 26.1483 40.2455 25.8777L40.1658 25.7989C39.8329 25.485 39.4459 25.2341 39.0235 25.0585C38.1013 24.6794 37.0667 24.6794 36.1445 25.0585C35.5376 25.3096 35.0069 25.715 34.605 26.2346C34.2032 26.7541 33.9442 27.3697 33.8538 28.0203L33.8403 28.1166H30.8733L30.8609 28.0203C30.805 27.6182 30.684 27.2278 30.5025 26.8646C30.3205 26.4994 30.0806 26.1662 29.7921 25.8777L29.7134 25.7989C29.185 25.302 28.5246 24.9679 27.8113 24.8366C27.0979 24.7053 26.3618 24.7823 25.6911 25.0585C25.1097 25.2991 24.5977 25.6815 24.2021 26.1708C23.8065 26.6602 23.5397 27.2408 23.4263 27.8598L23.4056 27.9747L23.2916 27.9489L19.3843 27.1639L19.345 27.9478L23.361 29.1802L23.4232 29.2009L23.4356 29.263C23.5726 29.9654 23.9075 30.6139 24.4008 31.1323L24.4691 31.2006C24.8197 31.5508 25.2356 31.8287 25.6932 32.0188C26.6137 32.3989 27.6473 32.3992 28.568 32.0198C29.0253 31.8297 29.4408 31.5517 29.7911 31.2017L29.7921 31.2006L29.7932 31.1996C30.3602 30.6338 30.7314 29.9015 30.8526 29.1098L30.8671 29.0145H33.8475L33.862 29.1098C33.9214 29.5028 34.043 29.8839 34.2224 30.2386C34.3882 30.5643 34.6003 30.8643 34.8521 31.1292L34.9225 31.2006C35.2731 31.5508 35.689 31.8288 36.1466 32.0188C37.0671 32.3989 38.1006 32.3992 39.0214 32.0198C39.4783 31.8296 39.8935 31.5516 40.2434 31.2017L40.2455 31.2006V31.1996C40.5071 30.9378 40.729 30.6392 40.9041 30.3131C41.0782 29.9891 41.2034 29.6412 41.2759 29.2806L41.2883 29.2175L41.3505 29.1968L45.3997 27.9592L45.3769 27.1711L45.3779 27.169ZM28.217 25.916C28.5469 26.0532 28.848 26.2513 29.1045 26.5H29.1066L29.1397 26.5322C29.6715 27.0643 29.9703 27.7858 29.9703 28.5381C29.9703 29.2904 29.6715 30.012 29.1397 30.5441L29.1376 30.5461C28.6056 31.0777 27.8843 31.3762 27.1322 31.3762C26.3801 31.3762 25.6588 31.0777 25.1267 30.5461L25.0936 30.513V30.5109C24.8451 30.254 24.6473 29.9526 24.5106 29.6224C24.2236 28.928 24.2236 28.1482 24.5106 27.4538C24.7989 26.7581 25.3516 26.2053 26.0474 25.917C26.7421 25.6298 27.5223 25.6298 28.217 25.917V25.916ZM39.5123 26.6119C39.3589 26.4586 39.1878 26.3241 39.0028 26.2111C38.5895 25.9595 38.1168 25.8224 37.633 25.8139C37.1493 25.8053 36.672 25.9256 36.2501 26.1624C36.0667 26.2658 35.8958 26.3898 35.7406 26.5322C35.649 26.6156 35.5635 26.7056 35.4848 26.8014C35.3213 26.999 35.1864 27.2186 35.084 27.4538C35.0452 27.5423 35.0113 27.6329 34.9826 27.7252C34.9004 27.9883 34.8589 28.2624 34.8593 28.5381C34.8593 28.6272 34.8645 28.7162 34.8728 28.8043C34.9 29.0863 34.9713 29.3624 35.084 29.6224C35.1204 29.707 35.1612 29.7896 35.2063 29.8699C35.3288 30.0881 35.4807 30.2885 35.6578 30.4654V30.4674L35.7023 30.5109L35.723 30.5296L35.7406 30.5461C35.8257 30.6242 35.9156 30.6969 36.0099 30.7636C36.2286 30.9194 36.4695 31.0416 36.7244 31.1261C37.2045 31.2844 37.719 31.3067 38.2109 31.1905C38.7028 31.0742 39.1529 30.8239 39.5112 30.4674L39.5144 30.4654L39.5661 30.4115C40.0531 29.8955 40.3201 29.2102 40.3104 28.5007C40.3007 27.7912 40.0152 27.1134 39.5144 26.6109L39.5123 26.6119Z" fill="#434955"/>
<path d="M37.5852 31.3914C39.161 31.3914 40.4384 30.114 40.4384 28.5382C40.4384 26.9624 39.161 25.6849 37.5852 25.6849C36.0094 25.6849 34.7319 26.9624 34.7319 28.5382C34.7319 30.114 36.0094 31.3914 37.5852 31.3914Z" fill="#E6E6E6"/>
<path d="M27.1323 31.3914C28.7081 31.3914 29.9855 30.114 29.9855 28.5382C29.9855 26.9624 28.7081 25.6849 27.1323 25.6849C25.5565 25.6849 24.2791 26.9624 24.2791 28.5382C24.2791 30.114 25.5565 31.3914 27.1323 31.3914Z" fill="#E6E6E6"/>
</g>
<defs>
<clipPath id="clip0_39_132">
<rect width="64" height="64" fill="white"/>
</clipPath>
</defs>
</svg>
